<svg xmlns="http://www.w3.org/2000/svg" width="26" height="34" viewBox="0 0 26 34"><defs><style>.a{fill:#25273b;}</style></defs><g transform="translate(-1355.5 -121)"><circle class="a" cx="1" cy="1" r="1" transform="translate(1367.5 125)"/><path class="a" d="M47.5,14.5h-2v-4a.99.99,0,0,0-1-1h-4a.99.99,0,0,0-1,1v4h-2v-4a3.022,3.022,0,0,1,3-3h4a3,3,0,0,1,3,3Z" transform="translate(1326 113.5)"/><path class="a" d="M40.5,47.5h-20a3,3,0,0,1-3-3v-24a3.048,3.048,0,0,1,3-3h4v2h-4a.99.99,0,0,0-1,1v24a.99.99,0,0,0,1,1h20a.99.99,0,0,0,1-1v-24a.99.99,0,0,0-1-1h-4v-2h4a3,3,0,0,1,3,3v24A3.048,3.048,0,0,1,40.5,47.5Z" transform="translate(1338 107.5)"/><rect class="a" width="14" height="2" transform="translate(1361.5 129)"/><path class="a" d="M32.6,54.235a.99.99,0,0,1-1-1,.881.881,0,0,1,.04-.32l1.4-4.28a.83.83,0,0,1,.24-.4l8.48-8.44a1.042,1.042,0,0,1,1.4,0L46,42.635a.966.966,0,0,1,0,1.4l-8.44,8.48a.83.83,0,0,1-.4.24l-4.24,1.44C32.8,54.195,32.72,54.235,32.6,54.235Zm2.28-4.72-.72,2.12,2.16-.72,7.6-7.6-1.44-1.44Z" transform="translate(1329.54 94.285)"/></g></svg>