<svg xmlns="http://www.w3.org/2000/svg" width="334.981" height="122.089" viewBox="0 0 334.981 122.089"><defs><style>.a,.c,.f,.h,.i,.p,.q{fill:#fff;}.a,.g,.h,.i,.j,.k,.n,.o,.p,.q{stroke:#000;}.a{stroke-width:1.984px;}.b,.e,.k{fill:#008300;}.d{font-size:6px;font-family:TimesNewRomanPS-BoldMT, Times New Roman;font-weight:700;}.e,.f,.h,.i,.k,.o,.p,.q{fill-rule:evenodd;}.g{fill:#ff0;stroke-width:1.191px;}.h{stroke-width:0.844px;}.i,.j{stroke-width:0.794px;}.j,.l,.r{fill:none;}.k{stroke-width:0.397px;}.m{fill:red;}.n{fill:#fbf014;stroke-width:0.371px;}.o{fill:#0087ff;}.o,.p{stroke-width:0.362px;}.q{stroke-width:0.445px;}.r{stroke:#108312;stroke-linecap:round;stroke-width:2.5px;}.s{font-size:20px;}.s,.t{font-family:OpenSans-Semibold, Open Sans;font-weight:600;}.t{font-size:18px;}</style></defs><g transform="translate(-87.019 -50.008)"><g transform="translate(87.018 50.001)"><g transform="translate(1.269 0.999)"><path class="a" d="M128.228-219.961a52.47,52.47,0,0,0-52.442,52.442,52.246,52.246,0,0,0,15.3,37L68.63-123.352l2.061,5.16-7.237,1.541L68.63-99.857h119.2l5.16-16.794-7.237-1.541,2.077-5.16-22.473-7.172a52.246,52.246,0,0,0,15.3-37A52.457,52.457,0,0,0,128.228-219.961Z" transform="translate(-63.454 219.961)"/><g transform="translate(6.368 93.676)"><path class="b" d="M41.364-102.892l4.554,14.774h107.7l4.539-14.774H41.364Z" transform="translate(-41.364 112.84)"/><path class="c" d="M45.706-99.983l3.375,10.969H153.446l3.375-10.969H45.706Z" transform="translate(-42.866 111.834)"/><text class="d" transform="translate(5.899 18.755)"><tspan x="0" y="0">JUMUIYA YA AFRIKA MASHARIKI</tspan></text><g transform="translate(0 0)"><path class="e" d="M41.364-108.146l6.817-1.827-2.153-3.73,11.75-4.4v3.995h3.63v6.141H41.638l-.274-.183Z" transform="translate(-41.364 118.099)"/><path class="f" d="M61.821-104.77H47.531L61.821-108.6Z" transform="translate(-43.497 114.815)"/><path class="f" d="M61.2-113.215H54.72l6.483-2.511Z" transform="translate(-45.983 117.278)"/><path class="f" d="M51.718-110.212l1.463,2.582,9.51-2.582Z" transform="translate(-44.945 115.371)"/></g><g transform="translate(116.795 10.136) rotate(180)"><path class="e" d="M0,.183,6.817,2.009,4.663,5.739l11.75,4.4V6.141h3.63V0H.274L0,.183Z" transform="translate(0)"/><path class="f" d="M14.291,0H0L14.291,3.833Z" transform="translate(4.034 0.091)"/><path class="f" d="M6.483,0H0L6.483,2.511Z" transform="translate(8.736 6.072)"/><path class="f" d="M0,2.582,1.463,0l9.51,2.582Z" transform="translate(6.773 2.394)"/></g></g><path class="g" d="M136.751-210.432a46.431,46.431,0,0,0-45.205,46.39,46.4,46.4,0,0,0,29.6,43.242v-5.127A41.666,41.666,0,0,1,96.3-164.042a41.658,41.658,0,0,1,41.36-41.652h.276a41.663,41.663,0,0,1,41.636,41.652,41.666,41.666,0,0,1-24.842,38.115v5.127a46.4,46.4,0,0,0,29.6-43.242,46.409,46.409,0,0,0-46.39-46.39c-.3,0-.594-.006-.892,0C136.944-210.43,136.849-210.434,136.751-210.432Z" transform="translate(-73.169 216.666)"/><g transform="translate(51.889 86.09)"><path class="h" d="M552.652-94.216l.069,6.866c-4.188.618-8.857,5.012-10.093,5.836s-3.341,2.446-4.44,2.311c-1.853-.229-.484-1.727-.484-1.727s-1.28,1.5-2.267.826c-.877-.6.531-1.8.531-1.8a1.318,1.318,0,0,1-1.434.381c-.907-.243-.251-1.375-.251-1.375s-2.539,1.331-2.915.9a1.156,1.156,0,0,1,.183-1.647l5.858-4.944h0c3.262-1.222,4.12.481,5.63.412s5.562-2.266,6.66-3.364.824-2.266,1.648-2.54S552.583-94.285,552.652-94.216Z" transform="translate(-526.983 94.277)"/><path class="i" d="M524.883-93.547l-.065,6.457c3.939.581,8.329,4.713,9.492,5.488s3.1,2,4.132,1.872c1.742-.215,1.392-.852,1.392-.852a2.392,2.392,0,0,0,1.8,0c1.028-.383.523-1.111.523-1.111s1.523.447,2.229-.366-.594-1.611-.594-1.611.577-.4-.457.183-3.147-1.865-5.278-1.929-2.324,2.066-3.68,1.033,1.119-2.7,1.937-2.97c3.373-1.107,6.479.263,2.4-1.269-2.086-.825-3.691.68-5.112.616s-4.91-1.994-5.944-3.027-.775-2.131-1.55-2.389-1.162-.194-1.227-.129Z" transform="translate(-524.818 94.045)"/><path class="j" d="M549.947-76.059l-2.785-1.21" transform="translate(-532.546 88.395)"/><path class="j" d="M546.471-74.539l-3.287-2.032" transform="translate(-531.17 88.153)"/></g><g transform="translate(25.945 17.942)"><path class="k" d="M332.277-87.37c-8.088,3.95-8.467-6.371-12.2-6.286C326.969-98.222,325.884-89.715,332.277-87.37Z" transform="translate(-311.682 152.684)"/><path class="k" d="M333.329-100.7c-4.128,7.448,5.412,8.432,5.118,11.977C343.076-95,335.131-94.482,333.329-100.7Z" transform="translate(-315.907 154.662)"/><path class="k" d="M321.809-100.746c-9.952,1.746-7.269-6.925-11.392-7.7,8.807-2.576,5.01,4.116,11.392,7.7Z" transform="translate(-308.342 157.539)"/><path class="k" d="M325.258-112.062c-5.49,6.51,2.433,6.824,1.46,10.245C332.472-107.08,326.573-106.86,325.258-112.062Z" transform="translate(-312.799 158.591)"/><path class="k" d="M313.918-117.508c-9.937-1.454-3.668-11.593-6.673-13.813C315.49-130.711,310.173-121.778,313.918-117.508Z" transform="translate(-307.245 165.252)"/><path class="k" d="M321.058-129.758c-9.2,4.361.116,8.983-3.534,13.1C326.523-117.161,318.551-123.114,321.058-129.758Z" transform="translate(-310.568 164.711)"/><path class="k" d="M312.988-138.488c-10.685-4.961.488-14.043-1.426-17.428C318.855-148.568,307.762-145.726,312.988-138.488Z" transform="translate(-307.608 173.758)"/><path class="k" d="M322.522-148.154c-9.2,1.163-4.624,9.63-6.49,12.613C323.18-137.179,317.383-141.49,322.522-148.154Z" transform="translate(-310.284 171.074)"/><path class="k" d="M318.264-159.324c-5.255-7.883,3.377-9.691,4.016-13.7C324.794-162.624,318.9-166.045,318.264-159.324Z" transform="translate(-310.472 179.676)"/><path class="k" d="M329.754-162.352c-8.574-2.431-7.072,6.143-9.934,8.189C327.053-152.952,325.582-159.9,329.754-162.352Z" transform="translate(-311.594 176.133)"/><path class="k" d="M328.675-172.389c-1.7-6.844,1.717-5.693,5.6-8.675C336.391-175.556,331.165-176.185,328.675-172.389Z" transform="translate(-314.502 182.456)"/><path class="k" d="M339.906-170.275c-6.626-4.855-7.312,1.688-10.718,2.567C335.5-163.975,335.753-169.485,339.906-170.275Z" transform="translate(-314.834 179.338)"/><path class="k" d="M339.526-177.419c.218-2.932,4.118-6.863,8.235-5.49C347.512-178.043,342.8-176.733,339.526-177.419Z" transform="translate(-318.409 183.191)"/></g><g transform="translate(103.587 84.157) rotate(180)"><path class="k" d="M12.2.9C4.114-3.049,3.735,7.272,0,7.188,6.893,11.753,5.808,3.246,12.2.9Z" transform="translate(8.393 0)"/><path class="k" d="M1.038,11.977C-3.09,4.528,6.45,3.545,6.156,0,10.785,6.275,2.84,5.758,1.038,11.977Z" transform="translate(16.384 0.277)"/><path class="k" d="M11.393.232C1.441-1.514,4.123,7.157,0,7.929c8.807,2.576,5.01-4.116,11.393-7.7Z" transform="translate(2.075 9.19)"/><path class="k" d="M1.954,10.245C-3.536,3.734,4.387,3.421,3.414,0,9.168,5.263,3.269,5.043,1.954,10.245Z" transform="translate(10.505 9.441)"/><path class="k" d="M6.673,0C-3.264,1.454,3,11.593,0,13.813,8.245,13.2,2.928,4.271,6.673,0Z" transform="translate(0 18.471)"/><path class="k" d="M4.2,13.1C-4.992,8.742,4.321,4.12.67,0,9.669.506,1.7,6.459,4.2,13.1Z" transform="translate(6.285 18.159)"/><path class="k" d="M4.693,0c-10.685,4.961.488,14.043-1.426,17.428C10.56,10.081-.532,7.238,4.693,0Z" transform="translate(0.687 30.944)"/><path class="k" d="M6.49,12.613C-2.71,11.449,1.866,2.983,0,0,7.148,1.637,1.351,5.948,6.49,12.613Z" transform="translate(5.748 30.683)"/><path class="k" d="M1.688,0C-3.567,7.883,5.065,9.691,5.7,13.7,8.218,3.3,2.324,6.72,1.688,0Z" transform="translate(6.104 45.863)"/><path class="k" d="M9.934,8.33C1.359,10.76,2.862,2.187,0,.141,7.232-1.07,5.762,5.873,9.934,8.33Z" transform="translate(8.227 44.104)"/><path class="k" d="M.447,0c-1.7,6.844,1.717,5.693,5.6,8.675C8.162,3.166,2.937,3.8.447,0Z" transform="translate(13.726 56.149)"/><path class="k" d="M10.718,3.852C4.092,8.707,3.407,2.164,0,1.285,6.312-2.448,6.565,3.062,10.718,3.852Z" transform="translate(14.354 53.299)"/><path class="k" d="M0,.17C.218,3.1,4.118,7.032,8.235,5.66,7.986.794,3.275-.517,0,.17Z" transform="translate(21.117 60.273)"/></g><g transform="translate(54.985 13.975)"><path class="l" d="M152.02-187.364a43.7,43.7,0,0,1,9.652-1.194,43.958,43.958,0,0,1,9.652,1.327" transform="translate(-151.982 194.74)"/><path d="M139.788-180.736l.388,2.271,1.263-.216a1.044,1.044,0,0,0,.631-.261.968.968,0,0,0,.128-.728l.157-.027.342,2-.157.027a2.218,2.218,0,0,0-.211-.518.538.538,0,0,0-.29-.19,1.3,1.3,0,0,0-.548.007l-1.263.216.324,1.894a1.814,1.814,0,0,0,.114.46.283.283,0,0,0,.141.111.761.761,0,0,0,.33-.008l.974-.167a2.679,2.679,0,0,0,.7-.189,1.07,1.07,0,0,0,.378-.339,3.308,3.308,0,0,0,.4-.884l.169-.029-.249,1.525-4.427.757-.027-.157.2-.035a.818.818,0,0,0,.369-.163.353.353,0,0,0,.147-.235,1.937,1.937,0,0,0-.044-.564l-.638-3.733a1.253,1.253,0,0,0-.225-.655.666.666,0,0,0-.537-.083l-.2.035-.027-.157,4.427-.757.279,1.247-.165.028a1.967,1.967,0,0,0-.306-.589.674.674,0,0,0-.362-.2,1.947,1.947,0,0,0-.608.039l-1.576.269m8.447,2.774-2.257.012-.391.922a1.457,1.457,0,0,0-.144.508.3.3,0,0,0,.126.236,1.145,1.145,0,0,0,.551.126V-176l-1.835.009v-.159a.989.989,0,0,0,.472-.17,2.633,2.633,0,0,0,.481-.841l2.025-4.807h.15l2.054,4.838a2.269,2.269,0,0,0,.447.759.925.925,0,0,0,.56.191v.159l-2.3.012v-.159a.849.849,0,0,0,.468-.118.3.3,0,0,0,.123-.241,1.778,1.778,0,0,0-.175-.6l-.357-.836m-.122-.317-1-2.35-1,2.361,2-.01m8.71-2.648-.2,1.975-.131-.023a2.494,2.494,0,0,0-.533-1.391,1.853,1.853,0,0,0-1.1-.587,1.92,1.92,0,0,0-1.084.115,1.946,1.946,0,0,0-.887.8,4.213,4.213,0,0,0-.534,1.535,3.4,3.4,0,0,0,.018,1.394,1.9,1.9,0,0,0,.6,1.006,2.206,2.206,0,0,0,1.1.5,2.031,2.031,0,0,0,1.028-.068,3.332,3.332,0,0,0,1.1-.791l.117.107a3.06,3.06,0,0,1-1.2.949,2.589,2.589,0,0,1-1.429.121,2.628,2.628,0,0,1-2.029-1.439,3.072,3.072,0,0,1-.266-1.956,3.344,3.344,0,0,1,.657-1.514,2.82,2.82,0,0,1,1.251-.932,2.909,2.909,0,0,1,1.547-.144,2.745,2.745,0,0,1,1.176.516.676.676,0,0,0,.238.137.284.284,0,0,0,.213-.046.67.67,0,0,0,.211-.291l.148.025" transform="translate(-138.099 181.968)"/></g><path class="m" d="M146.694-180.615c-.642.049-1.293.15-1.92.232a8.559,8.559,0,0,1-4.567,3.824c-.138.056-.291.1-.433.155a8.806,8.806,0,0,1-6.332.186,27.228,27.228,0,0,0-5,4.226s0,.015,0,.015a8.622,8.622,0,0,1-1.053,5.837c-.07.132-.141.256-.217.387a8.821,8.821,0,0,1-4.768,4.226h-.015a26.732,26.732,0,0,0-1.13,6.58,8.591,8.591,0,0,1,2.942,5.155c.031.146.067.284.093.433a8.851,8.851,0,0,1-.929,6.286,26.781,26.781,0,0,0,3.282,5.682h.015a8.644,8.644,0,0,1,5.511,2.044c.118.092.225.2.341.294a8.833,8.833,0,0,1,3.329,5.4,26.785,26.785,0,0,0,6.317,2.322,8.572,8.572,0,0,1,5.6-2.028c.149-.006.3,0,.449,0a8.8,8.8,0,0,1,6.053,2.028,26.788,26.788,0,0,0,6.317-2.322,8.627,8.627,0,0,1,2.988-5.124c.111-.1.225-.2.341-.294a8.893,8.893,0,0,1,5.852-2.338h.015a26.961,26.961,0,0,0,3.236-5.573,8.641,8.641,0,0,1-.975-5.806c.02-.148.051-.284.077-.433a8.827,8.827,0,0,1,3.05-5.62,26.9,26.9,0,0,0-1.115-6.58,8.6,8.6,0,0,1-4.521-3.824c-.079-.126-.141-.271-.217-.4a8.792,8.792,0,0,1-1.27-6.255,27.138,27.138,0,0,0-5.217-4.412,8.576,8.576,0,0,1-5.96-.015c-.142-.046-.276-.1-.418-.155a8.85,8.85,0,0,1-4.985-3.932,27.216,27.216,0,0,0-3.251-.2c-.175,0-.353,0-.526,0-.089,0-.174,0-.263,0-.062,0-.124,0-.186,0s-.1,0-.155,0-.091,0-.139,0h-.186c-.021,0-.041,0-.062,0Zm-2.044.232s0,.015,0,.015h.015s0-.014,0-.015Zm7.245,53.474s0,.015,0,.015h.015s0-.015,0-.015S151.9-126.91,151.9-126.909Z" transform="translate(-83.446 206.353)"/><path class="n" d="M173.322-151.736a23.052,23.052,0,0,1-23.043,23.043,23.052,23.052,0,0,1-23.043-23.043,23.052,23.052,0,0,1,23.043-23.043A23.052,23.052,0,0,1,173.322-151.736Z" transform="translate(-85.513 204.335)"/><path class="n" d="M172.412-150.715A21.121,21.121,0,0,1,151.3-129.6a21.121,21.121,0,0,1-21.113-21.113A21.121,21.121,0,0,1,151.3-171.828,21.121,21.121,0,0,1,172.412-150.715Z" transform="translate(-86.534 203.314)"/></g><g transform="translate(51.893 36.631)"><g transform="translate(1.208 0)"><path class="o" d="M-41.976-25.9l6.984,1.242-.931,6.984-5.9,4.035-3.259-3.57.155-5.743,2.949-2.949Z" transform="translate(48.601 32.466)"/><path class="p" d="M-45.788-23.917l-2.724.093a1.506,1.506,0,0,0-.187-.027.326.326,0,0,0-.093.013l-.04.147-.067.04-.053.187-.214.107-.013.12-.2.134-.254.16-.12-.04-.053-.254-.08-.013-.28.053-.2.053-.013-.334-.08-.093v-.614h.134l.04-.6.067-.147-.027-.12.214-.187.147-.107.08-.16.013-.2.08-.08-.107-.093-.147.08-.187-.12-.013-.254.04-.134.147-.093.067.04.093-.548.227-.147-.107-.334.08-.2-.04-.254.574-.214.053-.227.053-.254.24-.067.187-.107.12.334.013.174.16-.027.093-.227.147-.067.053-.2.374-.454.067-.134.307-.134.214-.04.2-.214.093-.134-.013-.16.093.04.147-.174-.107-.16.067-.12-.08-.321-.093-.093.027-.093-.147.214-.16-.067-.027-.2-.174.04-.16-.027-.187-.254-.107.053v.174l-.107-.067-.08-.214-.187.013.08-.28.24-.494.04-.24-.28-.24.174-.548.267-.294-.013-.267-.174.053.214-.334.481-.24.254.027.427.267.147-.093.187-.027.267-.2.361.28-.013.16.254.013.107.16h.147l.013-.227.454-.227.721-.067.548-.267.307.214.775.04,1.055-.988,3.458.735-.2,5.945-3.529,1.947-.2-.12-.107.08-.053-.053.04-.267-.227.04-.067.307h-.2l-.24-.12.027-.107.2.027-.013-.107-.147-.08-.214.04.013-.134.16-.174-.04-.067-.134.147-.16-.067-.134.093.134.187-.187.107-.013.12-.267-.04v.107h.174l-.414.307-.107-.12.04-.107h-.093l-.147.134-.254.013.04-.08.187-.053-.053-.067-.174.013v-.227l-.067.04-.027.2-.093-.04.013.12-.013.12.013.093-.093.027-.027-.067-.134.053-.08-.12s-.147.027-.12.093a1.589,1.589,0,0,1,.053.187l-.254-.08-.107-.067v.254l-.16.04-.214-.2.093.214-.24-.013-.147.093.12.134.093.107.107.12-.053.107-.093-.053-.16.24h-.12l-.093.2-.093.067.04.107.08.027-.013.12-.093-.027-.214.267.04.093.12-.013.013.347Z" transform="translate(50.462 35.638)"/><path class="p" d="M-36.234-24.167l7.524,4.121.106.571-.275.169.085.275.254.042.085.275,2.917,2.092.211-.127.254.106.063-.275.169-.169.338-.74-.19-.063.127-.275.169.042.254-.338.042-.3-.211-.148.254.085.211-.634.3-.085.063-.444.148-.148s-.19-.528-.021-.719.845-.169.845-.169l.423-.444v-.169l.254-.19-.254-.444.486.148.4-.148.232.021.4-.571v-.211l-1.2-1.543v-7.651l.719-.7,1.184-1.627-.338-.148-1.2.169-.3-.423h-.148l-.085-.232-.211-.127-1.987.867-.085.338-.465.444-.042.211-.106.021-.106-.063L-27-33.974l-.085.169-.7-.021-2.388-1.733h-1.8l-.359-.148-.021-.232h-3.234l-.74.74.19.782.275.042.148.38h.317l-.063.359-.063.063-.021.4.127.232.211.127.021.338.4.169.063.444.232.169.063.19-.169.232.275.4-.085.275.127.317v.127l-.063.4-.169.127-.106.254-.127.042.063.465-.359.042-.169.211-.169-.106-.021.444-.19.317h-.211v.19l-.254.085-.085.359v.3l-.275.19-.063.338.085.232.148.085.127-.085-.063.232.232.106.106.275.254-.148-.042-.19h.359l.4-.19.106.232.19.169-.063.063-.211-.042-.106.148-.148-.063-.359-.021-.042.148.19.127-.169.127-.127-.127-.169.085-.127-.085-.211-.063.042.254h-.19l-.106.359.19.19.19.106-.148.3-.106.106Z" transform="translate(45.621 35.939)"/><path class="p" d="M-18.418,3.587l.233-.233V3.208l.233-.029.136-.262.029.349-.126.087.019.2-.165-.01.049.194-.087-.01-.01-.126Z" transform="translate(39.379 22.501)"/><path class="p" d="M-19.7-2.314l.01-.437-.087-.078.291-.223.049-.262.3-.116-.087.291-.116.029-.039.349.165.213v.194l.146.087L-18.88-2v.2l-.136.107-.272-.33-.252.078Z" transform="translate(39.851 24.696)"/><path class="p" d="M-18.2-4.869l.058-.262.116-.3-.2-.5.233.029.087.223.155.058.019-.233s.107-.078.068.039a4.861,4.861,0,0,0-.087.534l.116.252-.175.233L-18-4.607l-.194-.262Z" transform="translate(39.312 25.562)"/><path class="p" d="M-27.742,1.513l-.892.7-1.183.466-.291.213-.6.019-.427.155-.291.1-.33.349-.524-.369H-32.9l-.213.233-.039.349-.407.194-.252-.058-.155.194-.7-.1-.213-.233-.369.058-.5.369-.233-.078-.058-.136-.175.039-.155.1-.291-.058.019-.233-.233-.078-.252-.349-.33.039-.1.175-.233.213-.272-.1-.989.019L-39.3,3.24h-.233l-.31-.6.019-.388.116-.1.039-.407-.252-.194.058-.621-.116-.175-.039-.272-.446-.446.039-.194-.6-.427h-.155l-.039.388-.213-.039-.155-.175-.66.136-.272-.33-.291.039-.272-.213-.349.019-.272-.272-.563.019-.136-.388-.369.039-.175-.155-.427.039-.039-.233-.5-.039-.252-.194-.019-.349-.388-.175-.349.078-.136-.427-.291-.272-.078-.369-.446-.66v-.233l-.252-.272V-5.18l-.233-.233.019-.252.116-.019-.019-.213-.33-.233-.136-.252-.466-.446-.213.078h-.213l-.446-.543-.019-.272.194-.252h.252l.1-.194-.058-.233-.388-.66.039-.33.155-.116-.1-.388-.407-.369v-.446l.1-.291v-.136l.369-.175.213-.116.213-.155.039-.194.349-.194-.019-.194.369-.33.019-.252.136-.33.446-.194-.019-.116.369-.194-.039-.485.078-.155-.175-.1-.155.039-.252-.116-.272.078L-48.6-14.4l.252-.291-.136-.116.175-.369.66-.1-.019-.485.116-.155-.252-.369.039-.6-.175-.213.039-.175-.369-.233-.252-.446.388-.058.175-.136h2.27l.1.175.019.213-.078.078-.078.291-.1.233-.019.116-.019.252-.058.291-.1.1v.233l-.1.1.194.039-.058.272-.078.291.175.058.33-.039-.194.369-.078.291.1.369.272-.233.213.155-.058-.33.1-.272.252.136.1-.116-.155-.233.291-.252.233.33.213.039.136.31.194-.407.078.291.252-.058.019.31.175.252-.31.155.019.33.194-.058.019-.252.252-.078-.116-.252-.078-.272.291-.407.213.039.175.272.427-.019.407-.388.5-.155-.1-.349h-.136l-.194.233-.582-.1-.213-.116-.155.1-.175.058-.5-.233v-.194l-.136-.1.213-.078.155.194.155-.019.194-.1.252.233.388-.078v-.194l-.252-.078.039-.155.388-.019.1-.136.33-.1-.194-.272.019-.155.563.155-.252-.272.058-.252.369.213.019-.1-.291-.213.407-.407,7.625,4.152.078.582-.272.175v.31l.33-.039.019.31,2.91,1.959.194.33-.155.175-.136.291-.078.446-.136.233v.388l-.252.252-.194.485v.369l.155.252-.1.388.291.252h.233l.563.66.291.272.136.291L-29.6-5.2l-.194.058-.175.6.019.446.213.213-.058.291-.155.388-.116.388.116.427.155.33.136.1v.272l-.116-.019.155.369.272.1.039.543-.116-.019.019.155.272.213.116.6-.136.213.078.116.349.078.136.31.272-.1.427.233.175.272-.019.136Z" transform="translate(50.401 29.783)"/></g><path class="q" d="M444.371,233.184c-.145-.256.608-.693.6-1.033-.014-.6.3-.858.9-1.155.074-.037.43-.23.523-.168.126.084.175.372.378.181.159-.151.679-.814.972-.727-.137.343.208.776.391,1.031a1.989,1.989,0,0,1,.4,1.23c-.077.459-.383.519-.838.372-.512-.167-.638.232-1.078-.1-.066.414-.025.867-.61.97-.3.053-.575.086-.723-.169a.324.324,0,0,0-.619.077.657.657,0,0,1-.293-.506" transform="translate(-444.353 -218.467)"/><path class="q" d="M444.829,235.031c.257-.711.706.066.772.073.92.091,1.1-.166,1.18-.951.5.371.342-.166,1.483.172-.194.08-.682.535-.3.521-.323.718.315.747.671.656-.219.282.268.4-.194.684-.285.175-.276.077-.342.391-.016.077-.348.039-.4.139s.2.366.167.437a1.19,1.19,0,0,1-.4.44c-.375.236-.427.514-.829.735a1.174,1.174,0,0,1-.575.141c-.071-.2-.5-.975-.578-1.228-.12-.365.049-.742-.235-1.059.033-.179.134-.4-.033-.6a1.691,1.691,0,0,1-.38-.555" transform="translate(-444.517 -219.809)"/></g></g><line class="r" y2="82" transform="translate(236.5 70.5)"/><g transform="translate(10 -1)"><text class="s" transform="translate(239 95)"><tspan x="0" y="0">EAC</tspan></text><text class="t" transform="translate(239 120)"><tspan x="0" y="0">Youth Ambassadors</tspan><tspan x="0" y="25">Platform</tspan></text></g></g></svg>