<svg xmlns="http://www.w3.org/2000/svg" width="19.084" height="13.798" viewBox="0 0 19.084 13.798"><defs><style>.a{fill:#3cc790;}</style></defs><g transform="translate(-3400 156)"><path class="a" d="M9.286,17.591l8.633,7.11,8.633-7.11a1.338,1.338,0,0,0-.581-.127H9.867A1.338,1.338,0,0,0,9.286,17.591Z" transform="translate(3391.623 -173.464)"/><path class="a" d="M23.882,21.8,14.9,29.2a.556.556,0,0,1-.706,0L5.2,21.8a.558.558,0,0,1-.081-.083A1.481,1.481,0,0,0,5,22.305V33.124a1.491,1.491,0,0,0,1.49,1.49H22.595a1.491,1.491,0,0,0,1.49-1.49V22.305a1.481,1.481,0,0,0-.121-.588.557.557,0,0,1-.081.083Z" transform="translate(3395 -176.816)"/></g></svg>