<svg xmlns="http://www.w3.org/2000/svg" width="17.481" height="16.137" viewBox="0 0 17.481 16.137"><defs><style>.a{fill:#fff;}</style></defs><path class="a" d="M449.481,7120.894v6.242h-3.747v-5.825c0-1.462-.542-2.461-1.9-2.461a2.043,2.043,0,0,0-1.923,1.324,2.4,2.4,0,0,0-.124.882v6.08h-3.748s.05-9.865,0-10.888h3.748v1.544l-.025.035h.025v-.035a3.741,3.741,0,0,1,3.378-1.8C447.632,7115.992,449.481,7117.55,449.481,7120.894ZM434.121,7111a1.893,1.893,0,1,0-.05,3.764h.025a1.894,1.894,0,1,0,.025-3.764Zm-1.9,16.137h3.747v-10.888h-3.747Z" transform="translate(-432 -7110.999)"/></svg>