<svg xmlns="http://www.w3.org/2000/svg" width="21.448" height="10.795" viewBox="0 0 21.448 10.795"><defs><style>.a{fill:#fff;}</style></defs><g transform="translate(-1843 -1013.912)"><path class="a" d="M10.4,6.349a1.349,1.349,0,0,1-1.908,0L6.747,4.6v7.148a1.349,1.349,0,0,1-2.7,0V4.6L2.3,6.349A1.349,1.349,0,1,1,.4,4.441L4.443.394a1.354,1.354,0,0,1,1.909,0L10.4,4.441a1.349,1.349,0,0,1,0,1.908Z" transform="translate(1864.448 1013.912) rotate(90)"/><circle class="a" cx="1.379" cy="1.379" r="1.379" transform="translate(1843 1017.929)"/><circle class="a" cx="1.379" cy="1.379" r="1.379" transform="translate(1847.242 1017.929)"/></g></svg>