<svg xmlns="http://www.w3.org/2000/svg" width="19.256" height="19.216" viewBox="0 0 19.256 19.216"><defs><style>.a{fill:#3cc790;}</style></defs><path class="a" d="M17.472,16.661a2.2,2.2,0,0,0-3.122,0l-1.065,1.065a19.2,19.2,0,0,1-3.313-2.659,19.2,19.2,0,0,1-2.659-3.313l1.065-1.065a2.2,2.2,0,0,0,0-3.122L6.3,5.5a2.152,2.152,0,0,0-1.55-.646h0A2.2,2.2,0,0,0,3.186,5.5l-1,.992a4.679,4.679,0,0,0-1.2,3.856C1.218,13.1,3.025,16.411,5.808,19.2s6.133,4.591,8.888,4.855a5.779,5.779,0,0,0,.617,0,4.458,4.458,0,0,0,3.239-1.2l.992-1a2.2,2.2,0,0,0,.646-1.565,2.152,2.152,0,0,0-.646-1.55Z" transform="translate(-0.934 -4.85)"/></svg>