<svg xmlns="http://www.w3.org/2000/svg" width="17.481" height="14.792" viewBox="0 0 17.481 14.792"><defs><style>.a{fill:#fff;}</style></defs><path class="a" d="M404.481,7112.751a7.282,7.282,0,0,1-2.065.59,3.694,3.694,0,0,0,1.577-2.062,7.027,7.027,0,0,1-2.273.9A3.53,3.53,0,0,0,399.1,7111a3.661,3.661,0,0,0-3.581,3.735,3.989,3.989,0,0,0,.083.85,10.019,10.019,0,0,1-7.387-3.9,3.875,3.875,0,0,0-.49,1.887,3.777,3.777,0,0,0,1.592,3.1,3.433,3.433,0,0,1-1.619-.459v.041a3.717,3.717,0,0,0,2.871,3.668,3.444,3.444,0,0,1-.94.122,3.061,3.061,0,0,1-.678-.064,3.642,3.642,0,0,0,3.349,2.6,7.028,7.028,0,0,1-4.444,1.592,6.69,6.69,0,0,1-.857-.052,9.8,9.8,0,0,0,5.5,1.674c6.595,0,10.2-5.688,10.2-10.62,0-.165-.006-.323-.013-.482A7.321,7.321,0,0,0,404.481,7112.751Z" transform="translate(-387 -7110.999)"/></svg>